<svg xmlns="http://www.w3.org/2000/svg" viewBox="0 0 1200 760" fill="none">
  <path d="M0 576C132 536 284 550 424 594C552 635 675 632 808 588C962 538 1088 548 1200 604V760H0V576Z" fill="#E4F8FF"/>
  <path d="M0 638C156 598 310 612 458 656C624 705 785 680 928 632C1042 594 1130 614 1200 646V760H0V638Z" fill="#FFE1EF"/>

  <g opacity=".58">
    <path d="M190 134C160 174 165 234 204 271C244 309 304 308 344 278C302 286 260 270 235 235C210 200 208 158 222 120C213 124 202 128 190 134Z" fill="#DFF6FF" stroke="#31566F" stroke-width="6" stroke-linecap="round" stroke-linejoin="round"/>
    <path d="M208 156C187 190 192 233 220 260" stroke="#6CB8D9" stroke-width="4" stroke-linecap="round"/>
  </g>

  <g stroke="#31566F" stroke-width="6" stroke-linecap="round" stroke-linejoin="round">
    <path d="M178 458C204 432 248 432 274 458L286 646H166L178 458Z" fill="#DFF6FF"/>
    <path d="M166 458L225 372L286 458Z" fill="#FFE1EF"/>
    <path d="M184 458C202 474 248 474 268 458" stroke="#F48AB6"/>
    <path d="M224 372V326"/>
    <path d="M207 326C219 314 233 314 245 326"/>
    <path d="M218 340C222 350 230 350 234 340"/>
    <path d="M204 520C210 506 225 506 231 520V578"/>

    <path d="M342 426H548V646H342V426Z" fill="#FFFFFF" opacity=".9"/>
    <path d="M328 426L444 300L560 426Z" fill="#FFE1EF"/>
    <path d="M356 426C392 450 504 450 536 426" stroke="#F48AB6"/>
    <path d="M390 512C396 492 426 492 432 512V566H390Z" fill="#DFF6FF"/>
    <path d="M472 512C478 492 508 492 514 512V566H472Z" fill="#DFF6FF"/>
    <path d="M444 300V250"/>
    <path d="M428 250C440 238 454 238 466 250"/>

    <path d="M558 330H706V646H558V330Z" fill="#FFFFFF" opacity=".94"/>
    <path d="M532 330L632 148L732 330Z" fill="#DFF6FF"/>
    <path d="M570 330C594 352 674 352 708 330" stroke="#F48AB6"/>
    <path d="M632 148V86"/>
    <path d="M616 86C631 70 647 70 662 86"/>
    <path d="M624 103C628 113 636 113 640 103"/>
    <path d="M610 408C616 382 650 382 656 408V454H610Z" fill="#FFE1EF"/>
    <path d="M608 506C615 478 653 478 660 506V562H608Z" fill="#DFF6FF"/>
    <path d="M606 608C616 574 660 574 670 608V646H606Z" fill="#FFE1EF"/>
    <circle cx="632" cy="236" r="25" fill="#FFF7FB"/>
    <circle cx="632" cy="476" r="10" fill="#F48AB6" opacity=".5"/>
    <circle cx="632" cy="584" r="9" fill="#6CB8D9" opacity=".5"/>

    <path d="M706 412H950V646H706V412Z" fill="#FFFFFF" opacity=".9"/>
    <path d="M706 412L828 350L950 412Z" fill="#FFE1EF"/>
    <path d="M738 412L758 386L778 412L798 386L818 412L838 386L858 412L878 386L898 412" stroke="#F48AB6"/>
    <path d="M770 514C776 492 806 492 812 514V570H770Z" fill="#DFF6FF"/>
    <path d="M846 514C852 492 882 492 888 514V570H846Z" fill="#DFF6FF"/>
    <path d="M828 350V302"/>
    <path d="M812 302C824 290 838 290 850 302"/>
    <path d="M824 316C828 326 834 326 838 316"/>
  </g>

  <g stroke="#6CB8D9" stroke-width="6" stroke-linecap="round" stroke-linejoin="round">
    <path d="M72 578C96 540 154 542 178 580C200 550 248 558 268 592C292 548 360 560 372 612C382 655 328 690 264 676H72V578Z" fill="#FFFFFF" opacity=".88"/>
    <path d="M500 604C522 558 592 558 616 604C646 566 708 580 720 626C728 656 698 684 638 676H500V604Z" fill="#FFFFFF" opacity=".9"/>
    <path d="M850 558C878 512 944 520 962 568C992 540 1042 552 1054 602C1062 636 1028 674 960 674H850V558Z" fill="#FFFFFF" opacity=".88"/>
  </g>

  <g stroke="#F48AB6" stroke-width="5" stroke-linecap="round" stroke-linejoin="round">
    <path d="M96 350C108 330 138 330 150 350C162 372 138 398 125 408C112 398 84 372 96 350Z" fill="#FFE1EF"/>
    <path d="M1002 318C1016 292 1052 292 1066 318C1082 348 1052 388 1034 402C1016 388 984 348 1002 318Z" fill="#FFD3E7"/>
    <path d="M113 414C132 422 150 416 160 398"/>
  </g>

  <g stroke="#31566F" stroke-width="5" stroke-linecap="round" stroke-linejoin="round">
    <path d="M96 300L112 316L96 332L80 316Z" fill="#FFFFFF"/>
    <path d="M986 244L1002 260L986 276L970 260Z" fill="#FFFFFF"/>
    <path d="M1064 442L1080 458L1064 474L1048 458Z" fill="#FFFFFF"/>
    <path d="M234 638H260"/>
    <path d="M247 625V651"/>
    <path d="M946 214H970"/>
    <path d="M958 202V226"/>
    <path d="M1088 180H1110"/>
    <path d="M1099 169V191"/>
  </g>

  <g fill="#F48AB6" opacity=".7">
    <circle cx="410" cy="178" r="8"/>
    <circle cx="720" cy="202" r="7"/>
    <circle cx="760" cy="250" r="6"/>
    <circle cx="1042" cy="430" r="7"/>
    <circle cx="315" cy="620" r="8"/>
  </g>

  <g fill="#6CB8D9" opacity=".65">
    <circle cx="88" cy="520" r="12"/>
    <circle cx="392" cy="668" r="6"/>
    <circle cx="706" cy="260" r="7"/>
    <circle cx="1016" cy="450" r="8"/>
    <circle cx="1120" cy="520" r="10"/>
  </g>
</svg>
